<?xml version="1.0" encoding="utf-8"?>
<!-- Generator: Adobe Illustrator 25.0.1, SVG Export Plug-In . SVG Version: 6.00 Build 0)  -->
<svg version="1.1" id="Layer_1" xmlns="http://www.w3.org/2000/svg" xmlns:xlink="http://www.w3.org/1999/xlink" x="0px" y="0px"
	 viewBox="0 0 25 25" style="enable-background:new 0 0 25 25;" xml:space="preserve">
<style type="text/css">
	.st0{fill:none;stroke:#434343;stroke-width:0.8092;stroke-linecap:round;stroke-linejoin:round;stroke-miterlimit:22.9256;}
</style>
<path class="st0" d="M17.4,21.3c0,0.6-0.5,1.2-1.1,1.2c-0.4,0-0.8-0.3-1-0.7l0,0l-2.2-3.6c-0.4-0.7-1-1.7-2.2-0.9
	c-0.5,0.3-1.1,0.4-1.7,0.4c-1.8,0-3.3-1.4-3.6-3.1c-0.3,0.1-0.7,0.2-1.1,0.2c-1.4,0-2.5-1.1-2.7-2.5C1.1,11.9,0.5,11,0.5,10
	c0-1.5,1.2-2.8,2.7-2.8c0,0,0.1,0,0.1,0C3.2,6.9,3.1,6.6,3.1,6.3c0-1.2,0.9-2.1,2.1-2.1c0.3,0,0.5,0.1,0.8,0.2
	c0.6-1.1,1.7-1.8,3-1.8c0.7,0,1.4,0.2,2,0.6c0.4-0.4,0.9-0.7,1.5-0.7c0.6,0,1.2,0.3,1.6,0.7C14.4,3.1,14.9,3,15.4,3
	c0.9,0,1.7,0.4,2.3,1c0.2-0.1,0.4-0.1,0.6-0.1c1.1,0,2,0.9,2.1,2c0.1,0,0.2,0,0.3,0c1.1,0,2,0.9,2,2.1c0,0.1,0,0.2,0,0.3
	c1.1,0.4,1.8,1.4,1.8,2.6c0,0.6-0.2,1.1-0.5,1.6c0.1,0.4,0.2,0.7,0.2,1.1c0,1.9-1.5,3.5-3.4,3.5c0,0-0.1,0-0.1,0c0,0.1,0,0.2,0,0.2
	c0.1,1.1-0.6,2-1.4,2c-0.8,0-0.9-0.5-1.5-0.2c-0.4,0.2-0.6,0.6-0.6,1C17.1,20.6,17.4,20.8,17.4,21.3L17.4,21.3z"/>
<path class="st0" d="M23.9,12.5c-0.4,0.4-0.9,0.6-1.5,0.6c-1.2,0-2.2-1-2.2-2.3"/>
<path class="st0" d="M20.5,9.8c0,1.1-0.9,2.1-2,2.1c-0.4,0-0.8-0.1-1.1-0.4"/>
<path class="st0" d="M22.8,16.4c-0.4,0.3-1,0.4-1.5,0.4c-1.2-0.2-2.1-1.3-1.9-2.5"/>
<path class="st0" d="M6.4,11c0.3,0.5,0.5,1,0.4,1.7c-0.2,1.3-1.3,2.2-2.6,2.1"/>
<path class="st0" d="M9.7,8.9c0,0.5-0.2,1.1-0.6,1.5c-0.8,0.9-2.2,1-3.1,0.2"/>
<path class="st0" d="M13.7,6.7c0.3,0.2,0.6,0.5,0.7,0.9c0.3,0.9-0.2,1.8-1,2.1"/>
<path class="st0" d="M17,6.7c-0.3-0.2-0.7-0.3-1.1-0.3c-0.9,0.1-1.5,0.9-1.4,1.8"/>
<path class="st0" d="M13,9.6c0.3,0.4,0.4,1,0.3,1.5c-0.2,1.2-1.3,2-2.5,1.8"/>
<path class="st0" d="M18.9,14.3c-0.4,0.4-0.9,0.8-1.5,0.9c-0.8,0.1-1.6-0.2-2.2-0.8"/>
<path class="st0" d="M20.3,18.8c-0.3,0.3-0.7,0.5-1.2,0.5c-1,0-1.8-0.8-1.8-1.8"/>
<path class="st0" d="M2.1,13.1c-0.5-0.7-0.3-1.8,0.4-2.3"/>
</svg>
