<svg id="ek8ioksyarw1" xmlns="http://www.w3.org/2000/svg" xmlns:xlink="http://www.w3.org/1999/xlink" viewBox="0 0 25 25" shape-rendering="geometricPrecision" text-rendering="geometricPrecision"><style><![CDATA[#ek8ioksyarw2_ts {animation: ek8ioksyarw2_ts__ts 3000ms linear infinite normal forwards}@keyframes ek8ioksyarw2_ts__ts { 0% {transform: translate(12.500000px,12.500000px) scale(1,1)} 50% {transform: translate(12.500000px,12.500000px) scale(0.916743,0.916743)} 100% {transform: translate(12.500000px,12.500000px) scale(1.000767,1.000767)} }]]></style><g id="ek8ioksyarw2_ts" transform="translate(12.500000,12.500000) scale(1,1)"><g id="ek8ioksyarw2" transform="translate(-12.500000,-12.500000)"><path id="ek8ioksyarw3" d="M17.400000,21.300000C17.400000,21.900000,16.900000,22.500000,16.300000,22.500000C15.900000,22.500000,15.500000,22.200000,15.300000,21.800000L15.300000,21.800000L13.100000,18.200000C12.700000,17.500000,12.100000,16.500000,10.900000,17.300000C10.400000,17.600000,9.800000,17.700000,9.200000,17.700000C7.400000,17.700000,5.900000,16.300000,5.600000,14.600000C5.300000,14.700000,4.900000,14.800000,4.500000,14.800000C3.100000,14.800000,2,13.700000,1.800000,12.300000C1.100000,11.900000,0.500000,11,0.500000,10C0.500000,8.500000,1.700000,7.200000,3.200000,7.200000C3.200000,7.200000,3.300000,7.200000,3.300000,7.200000C3.200000,6.900000,3.100000,6.600000,3.100000,6.300000C3.100000,5.100000,4,4.200000,5.200000,4.200000C5.500000,4.200000,5.700000,4.300000,6,4.400000C6.600000,3.300000,7.700000,2.600000,9,2.600000C9.700000,2.600000,10.400000,2.800000,11,3.200000C11.400000,2.800000,11.900000,2.500000,12.500000,2.500000C13.100000,2.500000,13.700000,2.800000,14.100000,3.200000C14.400000,3.100000,14.900000,3,15.400000,3C16.300000,3,17.100000,3.400000,17.700000,4C17.900000,3.900000,18.100000,3.900000,18.300000,3.900000C19.400000,3.900000,20.300000,4.800000,20.400000,5.900000C20.500000,5.900000,20.600000,5.900000,20.700000,5.900000C21.800000,5.900000,22.700000,6.800000,22.700000,8C22.700000,8.100000,22.700000,8.200000,22.700000,8.300000C23.800000,8.700000,24.500000,9.700000,24.500000,10.900000C24.500000,11.500000,24.300000,12,24,12.500000C24.100000,12.900000,24.200000,13.200000,24.200000,13.600000C24.200000,15.500000,22.700000,17.100000,20.800000,17.100000C20.800000,17.100000,20.700000,17.100000,20.700000,17.100000C20.700000,17.200000,20.700000,17.300000,20.700000,17.300000C20.800000,18.400000,20.100000,19.300000,19.300000,19.300000C18.500000,19.300000,18.400000,18.800000,17.800000,19.100000C17.400000,19.300000,17.200000,19.700000,17.200000,20.100000C17.100000,20.600000,17.400000,20.800000,17.400000,21.300000L17.400000,21.300000Z" fill="none" stroke="rgb(67,67,67)" stroke-width="0.809200" stroke-linecap="round" stroke-linejoin="round" stroke-miterlimit="22.925600"/><path id="ek8ioksyarw4" d="M23.900000,12.500000C23.500000,12.900000,23,13.100000,22.400000,13.100000C21.200000,13.100000,20.200000,12.100000,20.200000,10.800000" fill="none" stroke="rgb(67,67,67)" stroke-width="0.809200" stroke-linecap="round" stroke-linejoin="round" stroke-miterlimit="22.925600"/><path id="ek8ioksyarw5" d="M20.500000,9.800000C20.500000,10.900000,19.600000,11.900000,18.500000,11.900000C18.100000,11.900000,17.700000,11.800000,17.400000,11.500000" fill="none" stroke="rgb(67,67,67)" stroke-width="0.809200" stroke-linecap="round" stroke-linejoin="round" stroke-miterlimit="22.925600"/><path id="ek8ioksyarw6" d="M22.800000,16.400000C22.400000,16.700000,21.800000,16.800000,21.300000,16.800000C20.100000,16.600000,19.200000,15.500000,19.400000,14.300000" fill="none" stroke="rgb(67,67,67)" stroke-width="0.809200" stroke-linecap="round" stroke-linejoin="round" stroke-miterlimit="22.925600"/><path id="ek8ioksyarw7" d="M6.400000,11C6.700000,11.500000,6.900000,12,6.800000,12.700000C6.600000,14,5.500000,14.900000,4.200000,14.800000" fill="none" stroke="rgb(67,67,67)" stroke-width="0.809200" stroke-linecap="round" stroke-linejoin="round" stroke-miterlimit="22.925600"/><path id="ek8ioksyarw8" d="M9.700000,8.900000C9.700000,9.400000,9.500000,10,9.100000,10.400000C8.300000,11.300000,6.900000,11.400000,6,10.600000" fill="none" stroke="rgb(67,67,67)" stroke-width="0.809200" stroke-linecap="round" stroke-linejoin="round" stroke-miterlimit="22.925600"/><path id="ek8ioksyarw9" d="M13.700000,6.700000C14,6.900000,14.300000,7.200000,14.400000,7.600000C14.700000,8.500000,14.200000,9.400000,13.400000,9.700000" fill="none" stroke="rgb(67,67,67)" stroke-width="0.809200" stroke-linecap="round" stroke-linejoin="round" stroke-miterlimit="22.925600"/><path id="ek8ioksyarw10" d="M17,6.700000C16.700000,6.500000,16.300000,6.400000,15.900000,6.400000C15,6.500000,14.400000,7.300000,14.500000,8.200000" fill="none" stroke="rgb(67,67,67)" stroke-width="0.809200" stroke-linecap="round" stroke-linejoin="round" stroke-miterlimit="22.925600"/><path id="ek8ioksyarw11" d="M13,9.600000C13.300000,10,13.400000,10.600000,13.300000,11.100000C13.100000,12.300000,12,13.100000,10.800000,12.900000" fill="none" stroke="rgb(67,67,67)" stroke-width="0.809200" stroke-linecap="round" stroke-linejoin="round" stroke-miterlimit="22.925600"/><path id="ek8ioksyarw12" d="M18.900000,14.300000C18.500000,14.700000,18,15.100000,17.400000,15.200000C16.600000,15.300000,15.800000,15,15.200000,14.400000" fill="none" stroke="rgb(67,67,67)" stroke-width="0.809200" stroke-linecap="round" stroke-linejoin="round" stroke-miterlimit="22.925600"/><path id="ek8ioksyarw13" d="M20.300000,18.800000C20,19.100000,19.600000,19.300000,19.100000,19.300000C18.100000,19.300000,17.300000,18.500000,17.300000,17.500000" fill="none" stroke="rgb(67,67,67)" stroke-width="0.809200" stroke-linecap="round" stroke-linejoin="round" stroke-miterlimit="22.925600"/><path id="ek8ioksyarw14" d="M2.100000,13.100000C1.600000,12.400000,1.800000,11.300000,2.500000,10.800000" fill="none" stroke="rgb(67,67,67)" stroke-width="0.809200" stroke-linecap="round" stroke-linejoin="round" stroke-miterlimit="22.925600"/></g></g></svg>