<?xml version="1.0" encoding="utf-8"?>
<!-- Generator: Adobe Illustrator 25.0.1, SVG Export Plug-In . SVG Version: 6.00 Build 0)  -->
<svg version="1.1" id="Layer_1" xmlns="http://www.w3.org/2000/svg" xmlns:xlink="http://www.w3.org/1999/xlink" x="0px" y="0px"
	 viewBox="0 0 25 25" style="enable-background:new 0 0 25 25;" xml:space="preserve">
<style type="text/css">
	.st0{fill:none;stroke:#434343;stroke-width:0.9596;stroke-linecap:round;stroke-linejoin:round;stroke-miterlimit:22.9256;}
</style>
<path class="st0" d="M17.4,13.7c1.3,0,0.4,0,1.7,0c2.9,0,5.3-2.1,5.3-4.7c0-2.6-2.4-4.7-5.3-4.7c-0.4,0-0.7,0-1.1,0.1
	c-1-2.2-3.5-3.8-6.3-3.8c-3.8,0-6.8,2.7-6.8,6l0,0.1c-0.1,0-0.2,0-0.3,0c-2.2,0-4,1.6-4,3.5c0,1.9,1.8,3.5,4,3.5c1.5,0,0.8,0,2.4,0"
	/>
<line class="st0" x1="8.3" y1="24.4" x2="9.9" y2="8.7"/>
<line class="st0" x1="14.6" y1="8.7" x2="16.2" y2="24.4"/>
<line class="st0" x1="15.8" y1="22" x2="8.9" y2="22"/>
<line class="st0" x1="15.6" y1="18.5" x2="9.1" y2="18.5"/>
<line class="st0" x1="15.2" y1="14.9" x2="9.4" y2="14.9"/>
<line class="st0" x1="14.7" y1="11.3" x2="9.9" y2="11.3"/>
<path class="st0" d="M15.8,6c0.4-0.6,1.5-1.3,2.5-1.7"/>
<path class="st0" d="M5.4,8.9C5,8.3,4.8,7,4.9,5.9"/>
</svg>
