<?xml version="1.0" encoding="utf-8"?>
<!-- Generator: Adobe Illustrator 25.0.1, SVG Export Plug-In . SVG Version: 6.00 Build 0)  -->
<svg version="1.1" id="Layer_1" xmlns="http://www.w3.org/2000/svg" xmlns:xlink="http://www.w3.org/1999/xlink" x="0px" y="0px"
	 viewBox="0 0 25 25" style="enable-background:new 0 0 25 25;" xml:space="preserve">
<style type="text/css">
	.st0{fill:#39C3E1;}
</style>
<g>
	<g>
		<g>
			<g>
				<path class="st0" d="M18.1,14.9h-0.9c-0.2,0-0.4,0.2-0.4,0.4s0.2,0.4,0.4,0.4h0.9c0.2,0,0.4-0.2,0.4-0.4
					C18.4,15.1,18.3,14.9,18.1,14.9z"/>
				<path class="st0" d="M13.8,16.6C13.8,16.6,13.8,16.6,13.8,16.6L13.8,16.6c0.2-0.2,0.3-0.4,0.5-0.6l2.2-3.8
					c0.1-0.3,0.1-0.6-0.1-0.8c-0.2-0.2-0.5-0.2-0.8-0.1h0l-3.8,2.2c-0.2,0.1-0.4,0.3-0.6,0.5c-0.2,0.2-0.3,0.4-0.5,0.6l-2.2,3.8
					c-0.1,0.3-0.1,0.6,0.1,0.8c0.1,0.1,0.3,0.2,0.5,0.2c0.1,0,0.2,0,0.3-0.1l3.8-2.2C13.4,17,13.6,16.8,13.8,16.6z M12.1,14.2l3.5-2
					l-2,3.5c0,0.1-0.1,0.1-0.1,0.2L12,14.3C12,14.2,12.1,14.2,12.1,14.2z M12.9,16.4l-3.5,2l2-3.5c0-0.1,0.1-0.1,0.1-0.2l1.6,1.6
					C13,16.4,12.9,16.4,12.9,16.4z"/>
				<path class="st0" d="M18.8,13c0.2-0.1,0.3-0.3,0.2-0.5c-1.1-2.6-3.7-4.2-6.5-4.2c-3.9,0-7.1,3.2-7.1,7.1s3.2,7.1,7.1,7.1
					c3.9,0,7.1-3.2,7.1-7.1c0-0.2,0-0.5,0-0.7c0-0.2-0.2-0.3-0.4-0.3c-0.2,0-0.3,0.2-0.3,0.4c0,0.2,0,0.4,0,0.6
					c0,3.5-2.8,6.3-6.3,6.3c-3.5,0-6.3-2.8-6.3-6.3S9,9,12.5,9c2.5,0,4.8,1.5,5.8,3.8C18.4,13,18.6,13,18.8,13z"/>
				<path class="st0" d="M15,5.9c0.6-0.6,1-1.5,1-2.4C16,1.6,14.4,0,12.5,0C10.6,0,9,1.6,9,3.5c0,0.9,0.4,1.8,1,2.4
					C5.9,7,2.8,10.8,2.8,15.3c0,1.5,0.4,3.1,1.1,4.4c0.7,1.3,1.7,2.5,2.9,3.4c0.2,0.1,0.4,0.1,0.5-0.1c0.1-0.2,0.1-0.4-0.1-0.5
					c-1.1-0.8-2-1.9-2.6-3.1c-0.7-1.3-1-2.7-1-4.1c0-4.9,4-9,9-9s9,4,9,9c0,4.9-4,9-9,9c-1.3,0-2.5-0.3-3.7-0.8
					c-0.2-0.1-0.4,0-0.5,0.2c-0.1,0.2,0,0.4,0.2,0.5c1.3,0.6,2.6,0.9,4,0.9c5.3,0,9.7-4.3,9.7-9.7C22.2,10.8,19.1,7,15,5.9z
					 M14.1,5.7c-0.5-0.1-1-0.1-1.6-0.1c-0.5,0-1.1,0-1.6,0.1c-0.7-0.5-1.2-1.4-1.2-2.3c0-1.5,1.2-2.8,2.8-2.8c1.5,0,2.8,1.2,2.8,2.8
					C15.3,4.4,14.8,5.2,14.1,5.7z"/>
				<path class="st0" d="M12.5,1.6c-1.1,0-1.9,0.9-1.9,1.9s0.9,1.9,1.9,1.9c1.1,0,1.9-0.9,1.9-1.9C14.4,2.4,13.6,1.6,12.5,1.6z
					 M12.5,4.7c-0.7,0-1.2-0.5-1.2-1.2c0-0.7,0.5-1.2,1.2-1.2c0.7,0,1.2,0.5,1.2,1.2S13.2,4.7,12.5,4.7z"/>
				<path class="st0" d="M6.9,14.9c-0.2,0-0.4,0.2-0.4,0.4s0.2,0.4,0.4,0.4h0.9c0.2,0,0.4-0.2,0.4-0.4s-0.2-0.4-0.4-0.4H6.9z"/>
				<path class="st0" d="M12.9,10.7V9.7c0-0.2-0.2-0.4-0.4-0.4c-0.2,0-0.4,0.2-0.4,0.4v0.9c0,0.2,0.2,0.4,0.4,0.4
					C12.7,11,12.9,10.9,12.9,10.7z"/>
				<path class="st0" d="M12.1,20v0.9c0,0.2,0.2,0.4,0.4,0.4c0.2,0,0.4-0.2,0.4-0.4V20c0-0.2-0.2-0.4-0.4-0.4
					C12.3,19.6,12.1,19.7,12.1,20z"/>
			</g>
		</g>
	</g>
</g>
</svg>
