<svg version="1.1" xmlns="http://www.w3.org/2000/svg" xmlns:xlink="http://www.w3.org/1999/xlink" x="0px" y="0px"
	 viewBox="0 0 25 25" style="enable-background:new 0 0 25 25;" xml:space="preserve">
<style type="text/css">
	.st0{fill:none;stroke:#424242;stroke-width:0.9443;stroke-linecap:round;stroke-linejoin:round;stroke-miterlimit:22.9256;}
	.arrowUp {
		animation: arrowUp 3s ease-in-out 0s infinite;
	}
	@keyframes arrowUp {
		0% {
			opacity: 0;
			transform: translate(-3px, 3px);
		}
		20% {
			opacity: 1;
			transform: translate(0);
		}
	}
	.st1{fill:#FFFFFF;}
</style>
<line class="st0" x1="0.7" y1="20.3" x2="12.3" y2="20.3"/>
<polyline class="st0" points="1.4,20.1 1.4,10 5.4,10 5.4,20.1 "/>
<polyline class="st0" points="7.7,20.1 7.7,5.6 11.6,5.6 11.6,20.1 "/>
<polyline class="st0" points="13.9,13.3 13.9,0.9 17.8,0.9 17.8,11.4 "/>
<path class="st0 arrowUp" d="M20.5,15.1c-0.5,0.2-4.4,4.5-5.1,5.1"/>
<polyline class="st0 arrowUp" points="20.5,19.5 20.5,15.1 16.1,15.1 "/>
<polygon class="st1" points="9.9,20.8 12.7,20.8 15,24.4 9.9,24.4 "/>
<path class="st0" d="M18.2,11.6c-3.4,0-6.2,2.8-6.2,6.2c0,3.4,2.8,6.2,6.2,6.2c3.4,0,6.2-2.8,6.2-6.2C24.4,14.4,21.6,11.6,18.2,11.6
	L18.2,11.6z"/>
</svg>