<?xml version="1.0" encoding="utf-8"?>
<!-- Generator: Adobe Illustrator 25.0.1, SVG Export Plug-In . SVG Version: 6.00 Build 0)  -->
<svg version="1.1" id="Layer_1" xmlns="http://www.w3.org/2000/svg" xmlns:xlink="http://www.w3.org/1999/xlink" x="0px" y="0px"
	 viewBox="0 0 25 25" style="enable-background:new 0 0 25 25;" xml:space="preserve">
<style type="text/css">
	.st0{fill:none;stroke:#39C3E1;stroke-width:0.8;stroke-linecap:round;stroke-linejoin:round;stroke-miterlimit:22.9256;}
</style>
<path class="st0" d="M21.4,14.2l1.5-1.5c2.6-2.6,1.3-6.1-0.8-8.4c-0.7-0.7-1.5-1.4-2.3-1.9c-1.1-0.6-4.4-1.5-6.6,0.7L8.6,7.6
	c-1.2,1.2,1.9,2.4,3.4,0.9l1.1-1.1c1.7-1.5,3.8,1.5,6.5-0.6"/>
<path class="st0" d="M3.7,13.5L2.2,12c-5-5,3.7-13.7,8.8-8.7l1,1"/>
<path class="st0" d="M15.6,8.5l5.9,6.1c1.2,1.3-0.6,3.6-2.1,2.1l-2.7-2.8"/>
<path class="st0" d="M14.2,15.7l3,3.1c1.2,1.2,3.7-0.6,2.1-2.2l-2.9-3"/>
<path class="st0" d="M13.3,19.2l1.5,1.5c1.2,1.2,3.6-0.5,2.1-2.1"/>
<path class="st0" d="M7.3,12.3l0.2,0.2c0.5,0.5,0.5,1.4,0,2l-2.1,2.1c-0.5,0.5-1.4,0.5-2,0l-0.2-0.2c-0.5-0.5-0.5-1.4,0-2l2.1-2.1
	C5.8,11.7,6.7,11.7,7.3,12.3L7.3,12.3z"/>
<path class="st0" d="M10.8,13.2l0.2,0.2c0.5,0.5,0.5,1.4,0,2l-3.3,3.3c-0.5,0.5-1.4,0.5-2,0l-0.2-0.2c-0.5-0.5-0.5-1.4,0-2l3.3-3.3
	C9.3,12.7,10.2,12.7,10.8,13.2L10.8,13.2z"/>
<path class="st0" d="M12.1,16.3l0.2,0.2c0.5,0.5,0.5,1.4,0,2L10,20.7c-0.5,0.5-1.4,0.5-2,0l-0.2-0.2c-0.5-0.5-0.5-1.4,0-2l2.3-2.3
	C10.7,15.8,11.6,15.8,12.1,16.3L12.1,16.3z"/>
<path class="st0" d="M13.6,19.3l0.2,0.2c0.5,0.5,0.5,1.4,0,2l-1.4,1.4c-0.5,0.5-1.4,0.5-2,0l-0.2-0.2c-0.5-0.5-0.5-1.4,0-2l1.4-1.4
	C12.1,18.7,13,18.7,13.6,19.3L13.6,19.3z"/>
</svg>
