<?xml version="1.0" encoding="utf-8"?>
<!-- Generator: Adobe Illustrator 25.0.1, SVG Export Plug-In . SVG Version: 6.00 Build 0)  -->
<svg version="1.1" id="Layer_1" xmlns="http://www.w3.org/2000/svg" xmlns:xlink="http://www.w3.org/1999/xlink" x="0px" y="0px"
	 viewBox="0 0 25 25" style="enable-background:new 0 0 25 25;" xml:space="preserve">
<style type="text/css">
	.st0{fill:#424242;}
</style>
<g>
	<g>
		<g>
			<g>
				<path class="st0" d="M24.6,24.2c-0.1,0-2.7-0.9-6.9-1.3L17,10.2h0.5c0.2,0,0.3-0.1,0.3-0.3V8.1c0-0.2-0.1-0.3-0.3-0.3h-1.1V3.5
					h0.1c0.2,0,0.3-0.1,0.3-0.3V3.1c0-0.7-0.2-1.4-0.6-1.9c-0.5-0.6-1.4-1-2.2-1h-2.9c-0.8,0-1.5,0.3-2,0.8C8.5,1.5,8.2,2.3,8.2,3.1
					v0.1c0,0.2,0.1,0.3,0.3,0.3h0.1v4.3h-1c-0.2,0-0.3,0.1-0.3,0.3v1.8c0,0.2,0.1,0.3,0.3,0.3H8L7.3,23c-2.3,0.2-4.6,0.7-6.9,1.2
					c-0.2,0-0.3,0.2-0.2,0.4c0,0.1,0.2,0.2,0.3,0.2c0,0,0,0,0.1,0c2.2-0.5,4.5-0.9,6.7-1.2v0.9c0,0.1,0,0.2,0.1,0.2
					c0.1,0.1,0.1,0.1,0.2,0.1h9.9c0.1,0,0.2,0,0.2-0.1c0.1-0.1,0.1-0.1,0.1-0.2l-0.1-1c4.1,0.4,6.7,1.2,6.7,1.2h0.1
					c0.1,0,0.2-0.1,0.3-0.2S24.8,24.2,24.6,24.2z M9.5,1.5c0.4-0.4,1-0.7,1.6-0.7H14c0.7,0,1.3,0.3,1.7,0.8c0.3,0.3,0.5,0.8,0.5,1.3
					H8.8C8.9,2.3,9.1,1.8,9.5,1.5z M15.8,3.5v4.3H9.3V3.5H15.8z M7.9,9.6V8.4h9.3v1.2C17.2,9.6,7.9,9.6,7.9,9.6z M16.5,12.9l0.1,2.3
					H8.4l0.1-2.3H16.5z M8.5,12.2l0.1-2.1h7.8l0.1,2.1C16.5,12.2,8.5,12.2,8.5,12.2z M16.7,15.8l0.1,2.3H8.2l0.1-2.3H16.7z
					 M16.9,18.7L17,21H8.1l0.1-2.3H16.9z M7.9,24.2L8,21.6h9l0.1,2.6H7.9z"/>
			</g>
		</g>
		<g>
			<g>
				<path class="st0" d="M7.2,4.4L0.6,2C0.4,2,0.2,2,0.2,2.2c-0.1,0.2,0,0.3,0.2,0.4L7,5h0.1c0.1,0,0.2-0.1,0.3-0.2
					C7.4,4.6,7.3,4.4,7.2,4.4z"/>
			</g>
		</g>
		<g>
			<g>
				<path class="st0" d="M7.4,6.4C7.3,6.2,7.1,6.1,7,6.2L0.4,8.5C0.2,8.6,0.1,8.8,0.2,8.9c0,0.1,0.2,0.2,0.3,0.2h0.1l6.6-2.4
					C7.3,6.7,7.4,6.5,7.4,6.4z"/>
			</g>
		</g>
		<g>
			<g>
				<path class="st0" d="M24.6,8.6L18,6.2c-0.2-0.1-0.3,0-0.4,0.2s0,0.3,0.2,0.4l6.6,2.4h0.1c0.1,0,0.2-0.1,0.3-0.2
					C24.8,8.8,24.7,8.6,24.6,8.6z"/>
			</g>
		</g>
		<g>
			<g>
				<path class="st0" d="M24.8,2.2C24.7,2,24.5,2,24.4,2l-6.6,2.4c-0.2,0.1-0.2,0.2-0.2,0.4c0,0.1,0.2,0.2,0.3,0.2H18l6.6-2.4
					C24.7,2.5,24.8,2.4,24.8,2.2z"/>
			</g>
		</g>
		<g>
			<g>
				<path class="st0" d="M12.5,4c-0.9,0-1.7,0.8-1.7,1.7s0.8,1.7,1.7,1.7s1.7-0.8,1.7-1.7C14.2,4.7,13.4,4,12.5,4z M12.5,6.7
					c-0.6,0-1.1-0.5-1.1-1.1s0.5-1.1,1.1-1.1s1.1,0.5,1.1,1.1S13.1,6.7,12.5,6.7z"/>
			</g>
		</g>
	</g>
</g>
</svg>
