<svg version="1.1" xmlns="http://www.w3.org/2000/svg" xmlns:xlink="http://www.w3.org/1999/xlink" x="0px" y="0px"
	 viewBox="0 0 25 25" style="enable-background:new 0 0 25 25;" xml:space="preserve">
<style type="text/css">
	.st0{fill:none;stroke:#424242;stroke-width:0.9289;stroke-linecap:round;stroke-linejoin:round;stroke-miterlimit:22.9256;}
	.lightStroke {
		animation: lightStroke 5s ease-in-out 0s infinite;
	}
	.delay1 {
		animation-delay: .25s;
	}
	.delay2 {
		animation-delay: .5s;
	}
	.delay3 {
		animation-delay: .75s;
	}
	.delay4 {
		animation-delay: 1s;
	}
	.delay5 {
		animation-delay: 1.25s;
	}
	.delay6 {
		animation-delay: 1.5s;
	}
	@keyframes lightStroke {
		0% {
			opacity: 0;
		}
		25% {
			opacity: 1;
		}
		100% {
			opacity: 0;
		}
	}
</style>
<path class="st0" d="M9.6,18.6c-0.3-4-3.4-2-3.7-7.4c-0.2-3.4,3-6.2,6.6-6.2c3.7,0,6.9,2.8,6.6,6.2c-0.3,4.6-2.6,3.7-3.5,6.1"/>
<line class="st0" x1="9.7" y1="23.3" x2="15.7" y2="21.8"/>
<line class="st0" x1="9.7" y1="21.1" x2="15.7" y2="19.5"/>
<line class="st0" x1="9.7" y1="18.8" x2="15.7" y2="17.3"/>
<path class="st0" d="M14.6,22.6c0,1-1,1.9-2.1,1.9c-0.7,0-1.4-0.3-1.8-0.8"/>
<line class="st0 lightStroke delay3" x1="12.7" y1="0.5" x2="12.7" y2="2.6"/>
<line class="st0 lightStroke delay4" x1="20" y1="3.3" x2="18.6" y2="4.7"/>
<line class="st0 lightStroke delay5" x1="23.3" y1="11.1" x2="21.3" y2="11.1"/>
<line class="st0 lightStroke delay6" x1="19.7" y1="18.6" x2="18.3" y2="17.2"/>
<line class="st0 lightStroke delay2" x1="5.3" y1="3.3" x2="6.7" y2="4.7"/>
<line class="st0 lightStroke delay1" x1="1.7" y1="10.7" x2="3.7" y2="10.7"/>
<line class="st0 lightStroke" x1="5" y1="18.6" x2="6.4" y2="17.2"/>
</svg>
