<?xml version="1.0" encoding="utf-8"?>
<!-- Generator: Adobe Illustrator 25.0.1, SVG Export Plug-In . SVG Version: 6.00 Build 0)  -->
<svg version="1.1" id="Layer_1" xmlns="http://www.w3.org/2000/svg" xmlns:xlink="http://www.w3.org/1999/xlink" x="0px" y="0px"
	 viewBox="0 0 25 25" style="enable-background:new 0 0 25 25;" xml:space="preserve">
<style type="text/css">
	.st0{fill:none;stroke:#39C3E1;stroke-width:0.8447;stroke-linecap:round;stroke-linejoin:round;stroke-miterlimit:22.9256;}
</style>
<g>
	<polyline class="st0" points="19.9,7.7 23,4.6 19,0.6 7.2,12.3 11.2,16.4 15.6,12 	"/>
	<polyline class="st0" points="10.3,15.5 8.6,17.1 6.5,15 8.2,13.4 	"/>
	<line class="st0" x1="3.8" y1="19.9" x2="8.9" y2="19.9"/>
	<path class="st0" d="M17.7,6.9c1.5,0,2.8,1.3,2.8,2.8c0,1.5-1.3,2.8-2.8,2.8c-1.5,0-2.8-1.3-2.8-2.8C14.9,8.2,16.1,6.9,17.7,6.9
		L17.7,6.9z"/>
	<path class="st0" d="M20.4,12c2.9,3.6,2.2,5.9,0.4,9.5h0.4c1.2,0,2.2,0.9,2.2,2v0.9H1v-0.9c0-1.1,1-2,2.2-2H16
		c2.1-3.1,3-5.3,1.4-8.7"/>
</g>
</svg>
