<svg id="ea0up2jjyb1" xmlns="http://www.w3.org/2000/svg" xmlns:xlink="http://www.w3.org/1999/xlink" viewBox="0 0 27 25" shape-rendering="geometricPrecision" text-rendering="geometricPrecision"><style><![CDATA[#ea0up2jjyb3_tr {animation: ea0up2jjyb3_tr__tr 6000ms linear infinite normal forwards}@keyframes ea0up2jjyb3_tr__tr { 0% {transform: translate(17.915952px,9.974325px) rotate(75.622492deg)} 16.666667% {transform: translate(17.915952px,9.974325px) rotate(4.875303deg)} 33.333333% {transform: translate(17.915952px,9.974325px) rotate(0.538203deg)} 50% {transform: translate(17.915952px,9.974325px) rotate(3.515445deg)} 66.666667% {transform: translate(17.915952px,9.974325px) rotate(2.205990deg)} 88.333333% {transform: translate(17.915952px,9.974325px) rotate(75.287787deg)} 100% {transform: translate(17.915952px,9.974325px) rotate(75.498586deg)} }]]></style><g id="ea0up2jjyb2" transform="matrix(1 0 0 1 -0.30241800000000 0)"><g id="ea0up2jjyb3_tr" transform="translate(17.915952,9.974325) rotate(75.622492)"><g id="ea0up2jjyb3" transform="translate(-17.790437,-9.353837)"><polyline id="ea0up2jjyb4" points="19.900000,7.700000 23,4.600000 19,0.600000 7.200000,12.300000 11.200000,16.400000 15.600000,12" transform="matrix(1 0 0 1 0.00905193495317 -0.03791630682686)" fill="none" stroke="rgb(66,66,66)" stroke-width="0.844700" stroke-linecap="round" stroke-linejoin="round" stroke-miterlimit="22.925600"/><polyline id="ea0up2jjyb5" points="10.300000,15.500000 8.600000,17.100000 6.500000,15 8.200000,13.400000" fill="none" stroke="rgb(66,66,66)" stroke-width="0.844700" stroke-linecap="round" stroke-linejoin="round" stroke-miterlimit="22.925600"/></g></g><line id="ea0up2jjyb6" x1="3.800000" y1="19.900000" x2="8.900000" y2="19.900000" fill="none" stroke="rgb(66,66,66)" stroke-width="0.844700" stroke-linecap="round" stroke-linejoin="round" stroke-miterlimit="22.925600"/><path id="ea0up2jjyb7" d="M17.700000,6.900000C19.200000,6.900000,20.500000,8.200000,20.500000,9.700000C20.500000,11.200000,19.200000,12.500000,17.700000,12.500000C16.200000,12.500000,14.900000,11.200000,14.900000,9.700000C14.900000,8.200000,16.100000,6.900000,17.700000,6.900000L17.700000,6.900000Z" transform="matrix(1 0 0 1 0.04082861999999 0.26611284500000)" fill="none" stroke="rgb(66,66,66)" stroke-width="0.844700" stroke-linecap="round" stroke-linejoin="round" stroke-miterlimit="22.925600"/><path id="ea0up2jjyb8" d="M20.400000,12C23.300000,15.600000,22.600000,17.900000,20.800000,21.500000L21.200000,21.500000C22.400000,21.500000,23.400000,22.400000,23.400000,23.500000L23.400000,24.400000L1,24.400000L1,23.500000C1,22.400000,2,21.500000,3.200000,21.500000L16,21.500000C18.100000,18.400000,19,16.200000,17.400000,12.800000" fill="none" stroke="rgb(66,66,66)" stroke-width="0.844700" stroke-linecap="round" stroke-linejoin="round" stroke-miterlimit="22.925600"/></g></svg>