<svg id="e9ju41yb402t1" xmlns="http://www.w3.org/2000/svg" xmlns:xlink="http://www.w3.org/1999/xlink" viewBox="0 0 25 25" shape-rendering="geometricPrecision" text-rendering="geometricPrecision"><style><![CDATA[#e9ju41yb402t2_tr {animation: e9ju41yb402t2_tr__tr 10000ms linear infinite normal forwards}@keyframes e9ju41yb402t2_tr__tr { 0% {transform: translate(12.500000px,12.500000px) rotate(15.234647deg)} 10% {transform: translate(12.500000px,12.500000px) rotate(-3.326896deg)} 17% {transform: translate(12.500000px,12.500000px) rotate(10.330208deg)} 25% {transform: translate(12.500000px,12.500000px) rotate(-3.776242deg)} 34% {transform: translate(12.500000px,12.500000px) rotate(9.137597deg)} 50% {transform: translate(12.500000px,12.500000px) rotate(-74.673194deg)} 56% {transform: translate(12.500000px,12.500000px) rotate(-89.619139deg)} 59% {transform: translate(12.500000px,12.500000px) rotate(-80.590920deg)} 62% {transform: translate(12.500000px,12.500000px) rotate(-91.007463deg)} 79% {transform: translate(12.500000px,12.500000px) rotate(80deg)} 88% {transform: translate(12.500000px,12.500000px) rotate(95deg)} 93% {transform: translate(12.500000px,12.500000px) rotate(87.930086deg)} 100% {transform: translate(12.500000px,12.500000px) rotate(104.786579deg)} }]]></style><g id="e9ju41yb402t2_tr" transform="translate(12.500000,12.500000) rotate(15.234647)"><g id="e9ju41yb402t2" transform="scale(1.150532,1.150532) translate(-12.500000,-12.500000)"><polygon id="e9ju41yb402t3" points="12.500000,24.400000 11,15.700000 6.500000,18.500000 9.200000,14 0.600000,12.500000 9.300000,11 6.500000,6.500000 11,9.200000 12.500000,0.600000 14,9.300000 18.500000,6.500000 15.800000,11 24.400000,12.500000 15.700000,14 18.500000,18.300000 14,15.800000 12.500000,24.400000" transform="matrix(-0.86830444941424 0.09263945599236 -0.09263945599236 -0.86830444941424 24.51179811629431 22.19581178274626)" fill="none" stroke="rgb(66,66,66)" stroke-width="0.800000" stroke-linecap="round" stroke-linejoin="round" stroke-miterlimit="22.925600"/><path id="e9ju41yb402t4" d="M12.500000,14.200000C11.600000,14.200000,10.800000,13.500000,10.800000,12.500000C10.800000,11.600000,11.500000,10.800000,12.500000,10.800000C13.400000,10.800000,14.200000,11.500000,14.200000,12.500000C14.200000,13.400000,13.400000,14.200000,12.500000,14.200000L12.500000,14.200000Z" fill="none" stroke="rgb(66,66,66)" stroke-width="0.800000" stroke-linecap="round" stroke-linejoin="round" stroke-miterlimit="22.925600"/></g></g><g id="e9ju41yb402t5" transform="matrix(0 1 -1 0 25.00000095367432 0)"><path id="e9ju41yb402t6" d="M9.100000,22.600000C8.600000,22.400000,8.100000,22.200000,7.600000,22C7.100000,21.700000,6.600000,21.500000,6.200000,21.100000C5.800000,20.800000,5.300000,20.400000,5,20C4.600000,19.600000,4.300000,19.200000,3.900000,18.800000C3.600000,18.400000,3.300000,17.900000,3,17.400000C2.700000,16.900000,2.500000,16.400000,2.400000,15.900000" fill="none" stroke="rgb(66,66,66)" stroke-width="0.800000" stroke-linecap="round" stroke-linejoin="round" stroke-miterlimit="22.925600"/><path id="e9ju41yb402t7" d="M2.400000,9.100000C2.600000,8.600000,2.800000,8.100000,3,7.600000C3.300000,7.100000,3.500000,6.600000,3.900000,6.200000C4.200000,5.800000,4.600000,5.300000,5,5C5.400000,4.600000,5.800000,4.300000,6.200000,3.900000C6.600000,3.600000,7.100000,3.300000,7.600000,3C8.100000,2.700000,8.600000,2.500000,9.100000,2.400000" fill="none" stroke="rgb(66,66,66)" stroke-width="0.800000" stroke-linecap="round" stroke-linejoin="round" stroke-miterlimit="22.925600"/><path id="e9ju41yb402t8" d="M15.900000,2.400000C16.400000,2.600000,16.900000,2.800000,17.400000,3C17.900000,3.300000,18.400000,3.500000,18.800000,3.900000C19.200000,4.200000,19.700000,4.600000,20,5C20.400000,5.400000,20.700000,5.800000,21.100000,6.200000C21.400000,6.600000,21.700000,7.100000,22,7.600000C22.300000,8.100000,22.500000,8.600000,22.600000,9.100000" fill="none" stroke="rgb(66,66,66)" stroke-width="0.800000" stroke-linecap="round" stroke-linejoin="round" stroke-miterlimit="22.925600"/><path id="e9ju41yb402t9" d="M22.600000,15.900000C22.400000,16.400000,22.200000,16.900000,22,17.400000C21.700000,17.900000,21.500000,18.400000,21.100000,18.800000C20.800000,19.200000,20.400000,19.700000,20,20C19.600000,20.400000,19.200000,20.700000,18.800000,21.100000C18.400000,21.400000,17.900000,21.700000,17.400000,22C16.900000,22.300000,16.400000,22.500000,15.900000,22.600000" fill="none" stroke="rgb(66,66,66)" stroke-width="0.800000" stroke-linecap="round" stroke-linejoin="round" stroke-miterlimit="22.925600"/></g></svg>