<?xml version="1.0" encoding="utf-8"?>
<!-- Generator: Adobe Illustrator 25.0.1, SVG Export Plug-In . SVG Version: 6.00 Build 0)  -->
<svg version="1.1" id="Layer_1" xmlns="http://www.w3.org/2000/svg" xmlns:xlink="http://www.w3.org/1999/xlink" x="0px" y="0px"
	 viewBox="0 0 25 25" style="enable-background:new 0 0 25 25;" xml:space="preserve">
<style type="text/css">
	.st0{fill:none;stroke:#424242;stroke-width:0.8;stroke-linecap:round;stroke-linejoin:round;stroke-miterlimit:22.9256;}
</style>
<polygon class="st0" points="12.5,24.4 11,15.7 6.5,18.5 9.2,14 0.6,12.5 9.3,11 6.5,6.5 11,9.2 12.5,0.6 14,9.3 18.5,6.5 15.8,11 
	24.4,12.5 15.7,14 18.5,18.3 14,15.8 12.5,24.4 "/>
<path class="st0" d="M9.1,22.6c-0.5-0.2-1-0.4-1.5-0.6c-0.5-0.3-1-0.5-1.4-0.9C5.8,20.8,5.3,20.4,5,20c-0.4-0.4-0.7-0.8-1.1-1.2
	c-0.3-0.4-0.6-0.9-0.9-1.4c-0.3-0.5-0.5-1-0.6-1.5"/>
<path class="st0" d="M2.4,9.1c0.2-0.5,0.4-1,0.6-1.5c0.3-0.5,0.5-1,0.9-1.4C4.2,5.8,4.6,5.3,5,5c0.4-0.4,0.8-0.7,1.2-1.1
	C6.6,3.6,7.1,3.3,7.6,3c0.5-0.3,1-0.5,1.5-0.6"/>
<path class="st0" d="M15.9,2.4c0.5,0.2,1,0.4,1.5,0.6c0.5,0.3,1,0.5,1.4,0.9C19.2,4.2,19.7,4.6,20,5c0.4,0.4,0.7,0.8,1.1,1.2
	c0.3,0.4,0.6,0.9,0.9,1.4c0.3,0.5,0.5,1,0.6,1.5"/>
<path class="st0" d="M22.6,15.9c-0.2,0.5-0.4,1-0.6,1.5c-0.3,0.5-0.5,1-0.9,1.4c-0.3,0.4-0.7,0.9-1.1,1.2c-0.4,0.4-0.8,0.7-1.2,1.1
	c-0.4,0.3-0.9,0.6-1.4,0.9c-0.5,0.3-1,0.5-1.5,0.6"/>
<path class="st0" d="M12.5,14.2c-0.9,0-1.7-0.7-1.7-1.7c0-0.9,0.7-1.7,1.7-1.7c0.9,0,1.7,0.7,1.7,1.7C14.2,13.4,13.4,14.2,12.5,14.2
	L12.5,14.2z"/>
</svg>
