<?xml version="1.0" encoding="utf-8"?>
<!-- Generator: Adobe Illustrator 25.0.1, SVG Export Plug-In . SVG Version: 6.00 Build 0)  -->
<svg version="1.1" id="Layer_1" xmlns="http://www.w3.org/2000/svg" xmlns:xlink="http://www.w3.org/1999/xlink" x="0px" y="0px"
	 viewBox="0 0 27.9 25" style="enable-background:new 0 0 27.9 25;" xml:space="preserve">
<style type="text/css">
	.st0{fill:none;stroke:#424242;stroke-width:0.8;stroke-linecap:round;stroke-linejoin:round;stroke-miterlimit:22.9256;}
	.st1{fill:#FFFFFF;stroke:#424242;stroke-width:0.8;stroke-linecap:round;stroke-linejoin:round;stroke-miterlimit:22.9256;}
	.animatePuzzle {
		animation: animatePuzzle 5s ease-in-out infinite;
	}
	.animatePuzzleAlt {
		animation: animatePuzzleAlt 5s ease-in-out infinite;
	}
	.topRight {
		transform: skewY(-15deg) translate(-2px, 0);
	}
	.bottomLeft {
		transform:  skewY(10deg) translate(2px, 0);
	}
	@keyframes animatePuzzle {
		25% {
			transform: translate(0,0);
		}
		80% {
			transform: translate(0,0);
		}
		90% {
			transform: skewY(-15deg) translate(-2px, 0);
		}
	}
	@keyframes animatePuzzleAlt {
		25% {
			transform: translate(0,0);
		}
		80% {
			transform: translate(0,0);
		}
		90% {
			transform:  skewY(10deg) translate(2px, 0);
		}
	}
</style>
<path class="st0" d="M3.4,0.7H14v3.9c0.1,0.4,0.6,0.7,1.1,0.7c1,0,1-1.3,2.8-1.3c1.4,0,2.6,1.1,2.6,2.6c0,1.4-1.2,2.6-2.6,2.6
	c-1.6,0-1.8-1.2-2.8-1.1c-0.4,0-0.8,0.3-1.1,0.6v3.8H9.9c-0.2-0.2-0.3-0.5-0.3-0.8c0-1,1.1-1.2,1.1-2.8c0-1.4-1.2-2.6-2.6-2.6
	C6.6,6.4,5.5,7.5,5.5,9c0,1.7,1.3,1.8,1.3,2.8c0,0.3-0.1,0.6-0.3,0.8H2.2V1.9C2.2,1.2,2.7,0.7,3.4,0.7L3.4,0.7z"/>
<path class="st0" d="M24.6,24.3H14v-3.9c-0.1-0.4-0.6-0.7-1.1-0.7c-1,0-1,1.3-2.8,1.3c-1.4,0-2.6-1.1-2.6-2.6c0-1.4,1.2-2.6,2.6-2.6
	c1.6,0,1.8,1.2,2.8,1.1c0.4,0,0.8-0.3,1.1-0.6v-3.8h4.1c0.2,0.2,0.3,0.5,0.3,0.8c0,1-1.1,1.2-1.1,2.8c0,1.4,1.2,2.6,2.6,2.6
	s2.6-1.2,2.6-2.6c0-1.7-1.3-1.8-1.3-2.8c0-0.3,0.1-0.6,0.3-0.8h4.3v10.6C25.8,23.8,25.3,24.3,24.6,24.3L24.6,24.3z"/>
<path class="st0" d="M24.6,24.3H14v-3.9c-0.1-0.4-0.6-0.7-1.1-0.7c-1,0-1,1.3-2.8,1.3c-1.4,0-2.6-1.1-2.6-2.6c0-1.4,1.2-2.6,2.6-2.6
	c1.6,0,1.8,1.2,2.8,1.1c0.4,0,0.8-0.3,1.1-0.6v-3.8h4.1"/>
<g class="animatePuzzle topRight">
	<path class="st1" d="M14,24.3H3.4c-0.7,0-1.2-0.6-1.2-1.2c0,0,0-10.6,0-10.6h4.3c0.2-0.2,0.3-0.5,0.3-0.8c0-1-1.3-1.1-1.3-2.8
		c0-1.5,1.1-2.6,2.6-2.7c1.4,0,2.6,1.2,2.6,2.6c0,1.6-1.1,1.8-1.1,2.8c0,0.3,0.1,0.7,0.3,0.9c0,0,4.1,0,4.1,0v3.8
		c-0.3,0.3-0.7,0.6-1.1,0.6c-1,0.1-1.2-1.1-2.8-1.1c-1.4,0-2.6,1.2-2.6,2.6c0,1.5,1.2,2.6,2.6,2.6c1.8,0,1.8-1.3,2.8-1.3
		c0.5,0,1,0.3,1.1,0.7V24.3z"/>
</g>
<g class="animatePuzzleAlt bottomLeft">
	<path class="st1" d="M14,0.7v3.9c0.1,0.4,0.6,0.7,1.1,0.7c1,0,1-1.3,2.8-1.3c1.4,0,2.6,1.1,2.6,2.6c0,1.4-1.2,2.6-2.6,2.6
		c-1.6,0-1.8-1.2-2.8-1.1c-0.4,0-0.8,0.3-1.1,0.6c0,0,0,3.8,0,3.8h4.1c0.2,0.2,0.3,0.6,0.3,0.9c0,1-1.1,1.2-1.1,2.8
		c0,1.4,1.2,2.6,2.6,2.6c1.5-0.1,2.6-1.2,2.6-2.7c0-1.7-1.3-1.8-1.3-2.8c0-0.3,0.1-0.6,0.3-0.8h4.3c0,0,0-10.6,0-10.6
		c0-0.6-0.5-1.2-1.2-1.2H14"/>
</g>
</svg>