<?xml version="1.0" encoding="utf-8"?>
<!-- Generator: Adobe Illustrator 25.0.1, SVG Export Plug-In . SVG Version: 6.00 Build 0)  -->
<svg version="1.1" id="Layer_1" xmlns="http://www.w3.org/2000/svg" xmlns:xlink="http://www.w3.org/1999/xlink" x="0px" y="0px"
	 viewBox="0 0 25 25" style="enable-background:new 0 0 25 25;" xml:space="preserve">
<style type="text/css">
	.st0{fill:none;stroke:#424242;stroke-width:0.8;stroke-linecap:round;stroke-linejoin:round;stroke-miterlimit:22.9256;}
</style>
<path class="st0" d="M1.9,0.7h10.6v3.9c0.1,0.4,0.6,0.7,1.1,0.7c1,0,1-1.3,2.8-1.3C17.8,4,19,5.1,19,6.6c0,1.4-1.2,2.6-2.6,2.6
	c-1.6,0-1.8-1.2-2.8-1.1c-0.4,0-0.8,0.3-1.1,0.6v3.8H8.4c-0.2-0.2-0.3-0.5-0.3-0.8c0-1,1.1-1.2,1.1-2.8c0-1.4-1.2-2.6-2.6-2.6
	C5.1,6.4,4,7.5,4,9c0,1.7,1.3,1.8,1.3,2.8c0,0.3-0.1,0.6-0.3,0.8H0.7V1.9C0.7,1.2,1.2,0.7,1.9,0.7L1.9,0.7z"/>
<path class="st0" d="M12.5,24.3H1.9c-0.7,0-1.2-0.6-1.2-1.2V12.5"/>
<path class="st0" d="M23.1,24.3H12.5v-3.9c-0.1-0.4-0.6-0.7-1.1-0.7c-1,0-1,1.3-2.8,1.3C7.2,21,6,19.9,6,18.4c0-1.4,1.2-2.6,2.6-2.6
	c1.6,0,1.8,1.2,2.8,1.1c0.4,0,0.8-0.3,1.1-0.6v-3.8h4.1c0.2,0.2,0.3,0.5,0.3,0.8c0,1-1.1,1.2-1.1,2.8c0,1.4,1.2,2.6,2.6,2.6
	s2.6-1.2,2.6-2.6c0-1.7-1.3-1.8-1.3-2.8c0-0.3,0.1-0.6,0.3-0.8h4.3v10.6C24.3,23.8,23.8,24.3,23.1,24.3L23.1,24.3z"/>
<path class="st0" d="M12.5,0.7h10.6c0.7,0,1.2,0.6,1.2,1.2v10.6"/>
</svg>
