<svg version="1.1" id="Layer_1" xmlns="http://www.w3.org/2000/svg" xmlns:xlink="http://www.w3.org/1999/xlink" x="0px" y="0px"
	 viewBox="0 0 25 25" style="enable-background:new 0 0 25 25;" xml:space="preserve">
<style type="text/css">
	.st0{fill:none;stroke:#424242;stroke-width:0.9658;stroke-linecap:round;stroke-linejoin:round;stroke-miterlimit:22.9256;}
	.st1{fill:#424242;}
	.rocket {
		animation: rocket 3s ease-in-out 0s infinite;
	}
	.lineAnimate {
		animation: lineAnimate 1s linear infinite;
	}
	@keyframes rocket {
		0% {
			transform: translate(-.25px, .25px);
		}
		25% {
			transform: translate(.25px, -.25px);
		}
		50% {
			transform: translate(-.25px, .25px);
		}
		75% {
			transform: translate(.25px, -.25px);
		}
		100% {
			transform: translate(-.25px, .25px);
		}
	}
	@keyframes lineAnimate {
		0% {
			opacity: 0;
		}
		50% {
			opacity: 1;
		}
		100% {
			opacity: 0;
		}
		
	}
</style>
<g class="rocket">
	<path class="st0" d="M11.1,18.6l-0.6,2.3c-0.1,0.4-0.8,0.3-1.1,0L4.3,16c-0.3-0.3-0.4-1,0-1.1l2.3-0.8"/>
	<path class="st0" d="M9,16.3L9,16.3l-3.1-3c2.3-3.2,4.9-7.6,7.6-10.4c2.4-2.5,6.2-2.9,9.7-1.4l0,0c1.6,3.5,1.3,7.3-1,9.8
		c-2.7,2.8-6.9,5.6-10.1,8.1L9,16.3L9,16.3z"/>
	<path class="st0" d="M16.8,0.9c2-0.5,4.2-0.4,6.4,0.5l0,0c1,2.1,1.3,4.4,0.8,6.4L16.8,0.9L16.8,0.9z"/>
	<path class="st0" d="M17.7,7.2c0.8,0.7,0.8,2,0.1,2.7c-0.7,0.8-2,0.8-2.7,0.1c-0.8-0.7-0.8-2-0.1-2.7C15.7,6.5,16.9,6.5,17.7,7.2
		L17.7,7.2z"/>
	<path class="st0" d="M14.1,11c0.8,0.7,0.8,2,0.1,2.7c-0.7,0.8-2,0.8-2.7,0.1c-0.8-0.7-0.8-2-0.1-2.7C12.1,10.3,13.3,10.2,14.1,11
		L14.1,11z"/>
	<path class="st0" d="M5.9,13.3L10.2,7C8.8,6.7,7.4,6.1,6.1,6.2c-4.2,0.3-4.9,4-5.3,7.4L5.9,13.3L5.9,13.3z"/>
	<path class="st0" d="M12.2,19.2l6.1-4.6c0.3,1.4,1,2.8,1,4.1c-0.1,4.2-3.7,5.1-7.2,5.6L12.2,19.2L12.2,19.2z"/>
	<line class="st0" x1="7" y1="11.6" x2="13.8" y2="18"/>
</g>
<g>
	<path class="st1 lineAnimate" d="M4.4,18.3C4,18.9,3.5,19.4,3,20c-0.5,0.5-1.1,1-1.7,1.4L1,21.6l-0.3-0.3l0.2-0.3c0.4-0.6,0.9-1.2,1.4-1.7
		c0.5-0.5,1.1-1,1.7-1.4l0.3-0.2L4.6,18L4.4,18.3z"/>
</g>
<g>
	<path class="st1 lineAnimate" d="M4.4,21.1C4,21.7,3.5,22.3,3,22.8c-0.5,0.5-1.1,1-1.7,1.4L1,24.4l-0.3-0.3l0.2-0.3c0.4-0.6,0.9-1.2,1.4-1.7
		c0.5-0.5,1.1-1,1.7-1.4l0.3-0.2l0.4,0.4L4.4,21.1z"/>
</g>
<g>
	<path class="st1 lineAnimate" d="M7.3,21.1c-0.4,0.6-0.9,1.2-1.4,1.7c-0.5,0.5-1.1,1-1.7,1.4l-0.3,0.2l-0.3-0.3l0.2-0.3
		c0.4-0.6,0.9-1.2,1.4-1.7c0.5-0.5,1.1-1,1.7-1.4l0.3-0.2l0.4,0.4L7.3,21.1z"/>
</g>
</svg>