<?xml version="1.0" encoding="utf-8"?>
<!-- Generator: Adobe Illustrator 25.0.1, SVG Export Plug-In . SVG Version: 6.00 Build 0)  -->
<svg version="1.1" id="Layer_1" xmlns="http://www.w3.org/2000/svg" xmlns:xlink="http://www.w3.org/1999/xlink" x="0px" y="0px"
	 viewBox="0 0 25 25" style="enable-background:new 0 0 25 25;" xml:space="preserve">
<style type="text/css">
	.st0{fill:none;stroke:#39C3E1;stroke-width:0.8;stroke-linecap:round;stroke-linejoin:round;stroke-miterlimit:22.9256;}
</style>
<path class="st0" d="M11.8,3.6c0.2-0.8-0.2-1.7-0.2-2.4c0-0.8,2-0.8,1.9,0c0,0.7-0.4,1.6-0.2,2.4 M12.5,6.6v2.9 M6,6.6
	c-0.4-0.6-1.4-1-1.9-1.5C3.6,4.5,5,3.1,5.5,3.7C6,4.2,6.4,5.1,7,5.5 M8.7,8.2l2.1,2.1 M4.1,12.8C3.3,12.6,2.3,13,1.7,13
	c-0.8,0-0.8-2,0-1.9c0.7,0,1.6,0.4,2.4,0.2 M7.1,12h3.1 M7,18.5c-0.6,0.4-1,1.4-1.5,1.9C5,21,3.6,19.6,4.2,19
	c0.5-0.5,1.4-0.9,1.9-1.5 M8.7,15.9l1.5-1.5 M19,17.5c0.4,0.6,1.4,1,1.9,1.5c0.6,0.6-0.8,2-1.4,1.4c-0.5-0.5-0.9-1.4-1.5-1.9
	 M16.3,15.9l-1.5-1.5 M20.9,11.3c0.8,0.2,1.7-0.2,2.4-0.2c0.8,0,0.8,2,0,1.9c-0.7,0-1.6-0.4-2.4-0.2 M17.9,12h-3.1 M18,5.5
	c0.6-0.4,1-1.4,1.5-1.9c0.6-0.6,2,0.8,1.4,1.4c-0.5,0.5-1.4,0.9-1.9,1.5 M16.3,8.2l-2.1,2.1 M10.2,17.4c-2.1-0.9-3.5-3-3.5-5.4
	c0-3.2,2.6-5.9,5.9-5.9c3.2,0,5.9,2.6,5.9,5.9c0,2.4-1.5,4.5-3.5,5.4 M10.2,19.8c-3.3-1-5.8-4.1-5.8-7.8c0-4.5,3.6-8.1,8.1-8.1
	c4.5,0,8.1,3.6,8.1,8.1c0,3.7-2.4,6.8-5.8,7.8 M7.8,24.4h9.4 M10.2,24.2V11.9c0-1.3,1-2.3,2.3-2.3l0,0c1.3,0,2.3,1,2.3,2.3v12.3
	 M12.5,11.2c0.5,0,0.8,0.4,0.8,0.8c0,0.5-0.4,0.8-0.8,0.8c-0.5,0-0.8-0.4-0.8-0.8C11.7,11.6,12,11.2,12.5,11.2L12.5,11.2z"/>
</svg>
