<svg xmlns="http://www.w3.org/2000/svg" viewBox="0 0 207.9 71.2"><circle cx="48.6" cy="49.3" r="4.1"></circle><circle cx="6.7" cy="20" r="5.6"></circle><circle cx="19.7" cy="20" r="4.1"></circle><circle cx="34.2" cy="20" r="4.1"></circle><circle cx="48.9" cy="20" r="4.1"></circle><circle fill="#ED037C" cx="6.7" cy="49.3" r="5.6"></circle><circle cx="19.7" cy="49.3" r="4.1"></circle><circle cx="34.2" cy="49.3" r="4.1"></circle><circle cx="19.7" cy="34.4" r="5.6"></circle><circle fill="#ED037C" cx="35.7" cy="34.4" r="5.6"></circle><circle cx="48.9" cy="34.4" r="4.1"></circle><circle cx="19.7" cy="63.6" r="4.1"></circle><circle cx="6.7" cy="63.6" r="5.6"></circle><circle cx="63.2" cy="5.5" r="4.1"></circle><circle fill="#ED037C" cx="48.7" cy="5.5" r="4.1"></circle><circle cx="19.7" cy="5.5" r="4.1"></circle><path d="M192.7 52.3v-2.9h10.6v-6.6h2.6v9.5h-13.2zm-.1-16.4v-2.7l13.3-5.7v3l-3 1.2v5.6l3 1.2v3l-13.3-5.6zm7.7-3.1l-4.3 1.8 4.3 1.8v-3.6zm-7.6-7v-6.1c0-1.5.4-2.7 1.2-3.5.6-.6 1.3-.9 2.2-.9 1.5 0 2.3.8 2.9 1.7.6-1.5 1.5-2.5 3.2-2.5 2.4 0 3.6 2 3.6 4.9v6.3h-13.1zm5.3-5.5c0-1.3-.4-2.1-1.4-2.1-.9 0-1.4.7-1.4 1.9V23h2.8v-2.7zm5.3-.8c0-1.3-.5-2.1-1.4-2.1-.9 0-1.4.7-1.4 2.2V23h2.9v-3.5zM60.2 23.4c0-5.1 3.8-9.2 9.2-9.2 3.3 0 5.3 1.1 7 2.7L74 19.8c-1.4-1.2-2.8-2-4.5-2-3 0-5.1 2.5-5.1 5.5v.1c0 3 2.1 5.6 5.1 5.6 2 0 3.3-.8 4.7-2.1l2.5 2.5c-1.8 2-3.8 3.2-7.3 3.2-5.3-.1-9.2-4.1-9.2-9.2zm18.9-8.9h8.1c2.3 0 4 .6 5.2 1.8 1 1 1.5 2.4 1.5 4.1v.1c0 2.9-1.5 4.7-3.8 5.5l4.3 6.3h-4.6L86 26.6h-3v5.7h-3.9V14.5zm7.8 8.6c1.9 0 3-1 3-2.5v-.1c0-1.7-1.2-2.5-3.1-2.5H83v5.1h3.9zm10.3-8.6h13.4V18H101v3.6h8.4V25H101v3.7h9.6v3.5H97.2V14.5zm22.9-.2h3.6l7.6 17.9h-4.1l-1.6-4h-7.5l-1.6 4h-4l7.6-17.9zm4.1 10.5l-2.4-5.7-2.4 5.7h4.8zm11.1-6.7h-5.4v-3.6h14.7v3.6h-5.4v14.1h-3.9V18.1zm11.7-3.6h3.9v17.7H147V14.5zm6.1 0h4.3L162 27l4.6-12.5h4.2l-7.2 17.9h-3.4l-7.1-17.9zm20 0h13.4V18H177v3.6h8.4V25H177v3.7h9.6v3.5h-13.5V14.5z"></path><path d="M62.1 40.1h4.2c3.8 0 6.5 2.6 6.5 6s-2.6 6.1-6.5 6.1h-4.2V40.1zM66.3 51c3.1 0 5-2.1 5-4.8 0-2.7-2-4.8-5-4.8h-2.8V51h2.8zm9.1-10.9h8.8v1.2h-7.4v4.1h6.6v1.2h-6.6V51h7.5v1.2h-8.9V40.1zM86 50.5l.9-1c1.3 1.1 2.5 1.7 4.2 1.7 1.6 0 2.7-.9 2.7-2.1 0-1.1-.6-1.8-3.2-2.3-2.8-.6-4.1-1.5-4.1-3.5 0-1.9 1.7-3.3 4-3.3 1.8 0 3 .5 4.3 1.5l-.8 1c-1.1-.9-2.3-1.3-3.5-1.3-1.6 0-2.6.9-2.6 2s.6 1.8 3.3 2.4c2.7.6 4 1.6 4 3.4 0 2.1-1.7 3.4-4.1 3.4-2.1 0-3.6-.6-5.1-1.9zm14.8-9.1h-4.1v-1.3h9.5v1.3h-4.1v10.9h-1.4V41.4zm7.6-1.3h5.2c1.5 0 2.7.5 3.5 1.2.6.6.9 1.4.9 2.4 0 2-1.4 3.2-3.3 3.5l3.7 5h-1.7l-3.5-4.7h-3.4v4.7h-1.4V40.1zm5.1 6.2c1.8 0 3.1-.9 3.1-2.5 0-1.5-1.1-2.4-3.1-2.4h-3.7v4.9h3.7zm7 .9v-7.1h1.4v7c0 2.6 1.4 4.1 3.7 4.1 2.2 0 3.7-1.4 3.7-4v-7.1h1.4v7c0 3.5-2 5.4-5.1 5.4-3.1-.1-5.1-1.9-5.1-5.3zm12.6-1c0-3.5 2.6-6.3 6.1-6.3 2.2 0 3.5.8 4.7 1.9l-.9 1c-1-1-2.2-1.7-3.8-1.7-2.7 0-4.7 2.2-4.7 5s2 5 4.7 5c1.7 0 2.8-.6 3.9-1.8l.9.9c-1.3 1.3-2.7 2.1-4.9 2.1-3.4.2-6-2.6-6-6.1zm16.5-4.8h-4.1v-1.3h9.5v1.3h-4v10.9h-1.4V41.4zm7.6-1.3h1.4v12.1h-1.4V40.1zm4.1 6.1c0-3.4 2.5-6.3 6.2-6.3s6.2 2.9 6.2 6.2c0 3.3-2.5 6.3-6.2 6.3-3.7.1-6.2-2.8-6.2-6.2zm11 0c0-2.8-2-5.1-4.8-5.1s-4.8 2.2-4.8 5 2 5 4.8 5c2.8.1 4.8-2.1 4.8-4.9zm4.1-6.1h1.3l7.7 9.7v-9.7h1.3v12.1h-1.1l-7.8-10v10h-1.3V40.1z" fill="#ED037C"></path></svg>