<?xml version="1.0" encoding="UTF-8"?> <svg xmlns="http://www.w3.org/2000/svg" viewBox="0 0 261.55 75"><defs><style>.cls-1{fill:#333132;}.cls-2{fill:#0098d6;}</style></defs><g id="Layer_2" data-name="Layer 2"><g id="Layer_1-2" data-name="Layer 1"><path class="cls-1" d="M0,54.77V0H23.39L49.48,37.78V0H72.19V75H50.37L18.47,27.89Z"></path><path class="cls-1" d="M85.68,0h45.54c15.52,0,22.27,10.35,22.27,19.12,0,9.33-5.51,15.63-12.82,17.2C148.76,37.56,155,45,155,54.65,155,65.11,147.87,75,132.8,75H85.68Zm40.26,27.89a4.75,4.75,0,0,0,4.5-4.84,4.61,4.61,0,0,0-4.5-4.61H108.4v9.45Zm.67,28.67a5,5,0,0,0,5.29-5.06,5.12,5.12,0,0,0-5.29-5.17H108.4V56.56Z"></path><path class="cls-1" d="M168.44,0h22.72V75H168.44Z"></path><path class="cls-1" d="M204.65,0h56.9V18.89H227.37v8.77h22.34V46.55H227.37V75H204.65Z"></path><polygon class="cls-2" points="0 75 18.47 48.12 36.94 75 0 75"></polygon></g></g></svg> 