<svg version="1.1" id="brandIcon" xmlns="http://www.w3.org/2000/svg" xmlns:xlink="http://www.w3.org/1999/xlink" x="0px" y="0px"
	 viewBox="0 0 630 466.4" style="enable-background:new 0 0 630 466.4;" xml:space="preserve">
<style>
	.brandIcon {
		fill: #38C3E0;
		opacity: 0.15;
	}
</style>
<g>
	<path class="brandIcon" d="M626.2,6.6c-14.6,28.5-29.1,57.3-43.7,85.8c-4.7,9.2-7.3,10.1-16.5,5.4c-8.5-4.4-17.1-9.8-25.6-14.9
		c-6.3-3.8-12.7-7.6-19.9-12c6.3,30.4,12,59.5,18,88.6c4.1,20.3,8.2,40.8,12,61.1c0.9,5.4,0,10.4-5.7,13c-5.7,2.5-9.5-0.6-13-4.4
		c-13.6-15.5-27.2-30.7-41.1-46.2c-6.6-7.6-13.3-15.2-20.6-23.1c-3.8,8.9-7,16.8-10.4,24.7c-5.7,12.7-12.3,17.4-25.9,15.2
		c-14.9-2.2-29.1-6.3-43.7-9.8c-6.6-1.6-13-3.8-20.3-6c1.3,4.7,2.2,8.2,3.2,12c5.7,21.5,11.7,43,17.1,64.9
		c2.8,12.3-3.5,25-15.5,29.1c-4.4,1.6-8.9,3.2-14.6,5.1c7.9,6.3,15.2,11.7,22.8,17.7c-19.6,11.1-46.8,8.5-64.2-7.9
		c-29.7-28.2-75.3-27.5-104.1-0.3c-4.7,4.4-10.8,8.5-17.1,10.8c-22.1,8.2-42.4,4.7-60.1-11.1c-14.6-13-31.3-20.3-51.6-19.9
		c-19.6,0.3-38,8.5-52.5,21.5c-8.2,7-17.4,11.4-26.6,13c-3.5,0.6-6.6,4.1-6.6,8.5l0,0c0,5.4,4.7,9.5,10.1,8.5
		c13.9-2.5,27.2-8.9,38.3-19c21.5-19.6,54.4-19.6,76.3-0.6c8.9,7.6,18.4,14.2,29.7,17.4c7.6,2.2,14.9,3.2,22.1,3.5
		c18.7,0.3,36.1-6.3,51.6-19.9c13.9-12.3,29.7-17.7,48.4-14.9c11.7,1.9,21.2,7.3,30.1,14.9c25.6,22.1,54.4,26.3,84.8,11.4
		c7.9-3.8,12.7-3.5,19,1.6c8.2,6.3,16.8,11.7,25.3,17.7c-0.3,0.6-0.3,0.6-0.3,1.6c-19,2.2-32.6,13.9-46.8,25
		c-9.2,7-20.3,9.8-31.6,9.5c-15.2-0.3-28.5-6.3-40.2-16.8c-29.1-25.9-70.9-25.9-99.4,0c-10.1,9.2-21.5,14.2-33.2,15.5
		c-4.4,0.6-7.9,4.1-7.9,8.5v0.9c0,5.4,4.7,9.5,9.8,8.9c14.9-1.9,29.4-8.9,43-20.3c4.4-3.8,9.2-7.3,14.6-9.5
		c21.8-9.5,41.8-5.7,60.1,8.2c8.5,6.6,17.7,13.9,27.5,17.4c27.5,9.8,53.5,5.1,75.9-14.6c24.7-21.2,55.4-22.1,78.5-1.6
		c31.3,27.8,72.1,27.8,103.8,0.3c12-10.4,26.3-15.5,40.2-14.9V0C628.4,2.5,627.5,4.4,626.2,6.6z"/>
	<path class="brandIcon" d="M497.7,431.9c-29.4-25.9-73.4-25-103.2,0.6c-9.5,8.2-19.6,13.3-29.7,15.2c-4.1,0.6-7,4.4-7,8.5v0.6
		c0,5.1,4.4,9.2,9.5,8.5c14.6-1.9,28.5-7.9,40.8-19c11.7-10.4,25.3-16.8,41.5-15.5c14.2,0.9,25.9,7.3,36.7,16.8
		c19.3,17.1,42.1,21.5,66.8,17.1c14.6-2.5,26.6-10.1,38-19.9c11.4-9.8,25.3-14.6,38.9-13.9v-18c-18.4-0.3-36.7,6-52.2,19.6
		C552.8,454.4,522.7,454.1,497.7,431.9z"/>
</g>
</svg>
